<?xml version="1.0" encoding="UTF-8" standalone="no"?>
<!-- Created with Inkscape (http://www.inkscape.org/) -->

<svg
   xmlns:dc="http://purl.org/dc/elements/1.1/"
   xmlns:cc="http://creativecommons.org/ns#"
   xmlns:rdf="http://www.w3.org/1999/02/22-rdf-syntax-ns#"
   xmlns:svg="http://www.w3.org/2000/svg"
   xmlns="http://www.w3.org/2000/svg"
   xmlns:sodipodi="http://sodipodi.sourceforge.net/DTD/sodipodi-0.dtd"
   xmlns:inkscape="http://www.inkscape.org/namespaces/inkscape"
   version="1.1"
   id="svg2"
   xml:space="preserve"
   width="654.32324"
   height="157.73798"
   viewBox="0 0 654.32324 157.73798"
   sodipodi:docname="CryptoTax.svg"
   inkscape:version="0.92.1 r15371"><metadata
     id="metadata8"><rdf:RDF><cc:Work
         rdf:about=""><dc:format>image/svg+xml</dc:format><dc:type
           rdf:resource="http://purl.org/dc/dcmitype/StillImage" /><dc:title></dc:title></cc:Work></rdf:RDF></metadata><defs
     id="defs6"><clipPath
       clipPathUnits="userSpaceOnUse"
       id="clipPath24"><path
         d="M 0,792 H 960 V 0 H 0 Z"
         id="path22"
         inkscape:connector-curvature="0" /></clipPath></defs><sodipodi:namedview
     pagecolor="#ffffff"
     bordercolor="#666666"
     borderopacity="1"
     objecttolerance="10"
     gridtolerance="10"
     guidetolerance="10"
     inkscape:pageopacity="0"
     inkscape:pageshadow="2"
     inkscape:window-width="1920"
     inkscape:window-height="1001"
     id="namedview4"
     showgrid="false"
     inkscape:zoom="0.22348485"
     inkscape:cx="327.16166"
     inkscape:cy="-115.79772"
     inkscape:window-x="-9"
     inkscape:window-y="-9"
     inkscape:window-maximized="1"
     inkscape:current-layer="g10" /><g
     id="g10"
     inkscape:groupmode="layer"
     inkscape:label="CryptoTax"
     transform="matrix(1.3333333,0,0,-1.3333333,-312.83834,801.53571)"><g
       id="g18"><g
         id="g20"
         clip-path="url(#clipPath24)"><g
           id="g26"
           transform="translate(282.7284,529.1246)"><path
             d="m 0,0 c -4.303,0.943 -8.606,1.89 -12.911,2.828 -1.608,0.351 -3.216,0.708 -4.834,1.014 -0.697,0.132 -1.337,-0.073 -1.514,-0.856 -0.178,-0.786 0.318,-1.197 1.004,-1.414 0.336,-0.106 0.68,-0.194 1.025,-0.269 3.219,-0.696 6.473,-1.264 9.65,-2.117 C -4.927,-1.527 -2.49,-0.871 0,0 m 19.802,5.592 c -0.473,0.577 -1.05,0.54 -1.538,0.645 -7.953,1.727 -15.91,3.431 -23.868,5.134 -4.786,1.025 -9.573,2.045 -14.364,3.049 -0.838,0.176 -1.779,0.255 -1.984,-0.86 -0.187,-1.015 0.673,-1.235 1.443,-1.423 0.229,-0.056 0.456,-0.122 0.687,-0.171 C -8.29,9.491 3.244,7.031 14.77,4.531 c 1.867,-0.405 3.398,0.283 5.032,1.061 m 5.623,28.62 c 0.591,-0.027 1.146,0.181 1.321,0.85 0.183,0.701 -0.28,1.119 -0.866,1.35 -0.491,0.193 -1.016,0.31 -1.535,0.423 -11.939,2.61 -23.878,5.218 -35.82,7.819 -2.538,0.553 -5.081,1.082 -7.623,1.615 -0.813,0.171 -1.436,-0.079 -1.615,-0.939 -0.172,-0.825 0.386,-1.163 1.079,-1.339 0.687,-0.174 1.373,-0.354 2.065,-0.503 11.887,-2.565 23.776,-5.125 35.664,-7.688 2.423,-0.522 4.846,-1.05 7.33,-1.588 M 23.856,13.359 c 0.647,-0.109 1.21,0.039 1.448,0.699 0.283,0.79 -0.217,1.25 -0.869,1.49 -0.716,0.264 -1.466,0.448 -2.214,0.612 -10.375,2.271 -20.751,4.536 -31.129,6.795 -4.151,0.904 -8.308,1.778 -12.457,2.694 -0.805,0.178 -1.456,0.079 -1.71,-0.763 -0.274,-0.906 0.415,-1.261 1.097,-1.531 0.324,-0.128 0.686,-0.165 1.031,-0.24 10.263,-2.233 20.527,-4.465 30.79,-6.698 4.67,-1.017 9.34,-2.036 14.013,-3.058 m -0.428,10.818 c 0.869,0.017 1.737,-0.149 1.885,0.806 0.133,0.857 -0.616,1.21 -1.295,1.452 -0.553,0.196 -1.14,0.303 -1.717,0.428 -14.188,3.082 -28.376,6.167 -42.569,9.225 -1.005,0.216 -2.498,1.044 -2.813,-0.603 -0.292,-1.53 1.352,-1.486 2.379,-1.712 10.607,-2.333 21.22,-4.643 31.832,-6.952 4.151,-0.903 8.306,-1.787 12.298,-2.644 M -39.649,12.963 c -0.85,-1.506 -1.64,-2.859 -2.383,-4.238 -0.709,-1.316 -1.101,-2.732 -1.186,-4.229 -0.213,-3.762 1.302,-6.246 4.837,-7.54 3.894,-1.425 7.937,-1.657 12.04,-1.154 1.021,0.124 1.123,0.629 0.828,1.464 -2.49,7.058 -3.78,14.375 -4.473,21.794 -1.025,10.983 -1.056,21.928 1.963,32.675 0.576,2.047 1.383,4.011 2.259,5.953 0.548,1.217 1.22,1.628 2.609,1.295 8.608,-2.062 17.235,-4.044 25.86,-6.035 11.212,-2.588 22.428,-5.159 33.642,-7.74 3.386,-0.779 2.878,-0.694 2.062,-3.369 -2.252,-7.382 -3.611,-14.906 -3.557,-22.643 0.033,-4.862 0.749,-9.645 2.074,-14.32 0.354,-1.249 0.196,-1.88 -1.094,-2.432 -17.156,-7.34 -34.699,-13.373 -53.305,-15.777 -6.738,-0.87 -13.507,-1.496 -20.242,0.122 -1.087,0.261 -2.177,0.564 -3.212,0.981 -5.712,2.296 -8.302,7.375 -6.711,13.296 1.245,4.635 3.951,8.397 7.367,11.686 0.104,0.1 0.298,0.106 0.622,0.211"
             style="fill:#28aae1;fill-opacity:1;fill-rule:nonzero;stroke:none"
             id="path28"
             inkscape:connector-curvature="0" /></g><g
           id="g30"
           transform="translate(345.1871,561.6335)"><path
             d="m 0,0 c 9.968,-1.283 14.818,-10.82 10.179,-19.791 -2.762,-5.341 -7.18,-9.168 -11.944,-12.605 -4.263,-3.076 -8.739,-5.831 -13.501,-8.089 -0.945,-0.447 -1.634,-1.133 -2.163,-2.02 -5.811,-9.743 -12.952,-18.438 -21.044,-26.347 -3.373,-3.297 -6.991,-6.342 -10.712,-9.255 -1.085,-0.849 -1.997,-0.94 -3.15,-0.05 -9.785,7.558 -18.203,16.435 -25.56,26.342 -1.209,1.629 -1.11,1.743 0.905,2.045 13.23,1.985 26.163,5.142 38.739,9.747 10.785,3.949 21.207,8.635 30.943,14.767 3.824,2.408 7.198,5.352 10.177,8.739 1.59,1.808 2.64,3.939 2.993,6.325 C 6.467,-6.107 4.385,-3.33 1.235,-1.121 0.822,-0.831 0.218,-0.757 0,0"
             style="fill:#6d6f71;fill-opacity:1;fill-rule:nonzero;stroke:none"
             id="path32"
             inkscape:connector-curvature="0" /></g><g
           id="g34"
           transform="translate(326.7004,535.7338)"><path
             d="m 0,0 c -0.563,3.481 -0.866,6.514 -0.661,9.562 0.536,7.963 1.52,15.853 4.061,23.48 1.179,3.54 2.589,6.972 4.419,10.216 0.737,1.307 0.477,1.817 -0.961,2.165 -19.215,4.644 -38.422,9.328 -57.63,14.001 -2.041,0.497 -2.223,0.999 -0.998,2.75 2.274,3.249 4.189,3.812 8.047,2.766 6.604,-1.79 13.247,-3.437 19.873,-5.15 C -9.109,55.976 5.632,52.158 20.373,48.345 21.685,48.006 22.536,47.16 23.002,45.93 24.599,41.719 24.298,37.479 23.15,33.231 22.79,31.902 21.874,31.893 20.786,32.178 17.36,33.076 13.905,33.874 10.511,34.88 8.99,35.331 8.403,34.797 7.861,33.491 3.748,23.576 1.785,13.172 0.715,2.559 0.644,1.86 0.618,1.152 0,0"
             style="fill:#28aae1;fill-opacity:1;fill-rule:nonzero;stroke:none"
             id="path36"
             inkscape:connector-curvature="0" /></g><g
           id="g38"
           transform="translate(322.8532,534.2797)"><path
             d="m 0,0 c -0.635,1.205 -0.881,2.449 -1.099,3.689 -2.074,11.825 -0.812,23.391 2.732,34.778 0.711,2.284 0.645,2.487 -1.67,3.025 -11.096,2.578 -22.203,5.109 -33.303,7.671 -8.109,1.872 -16.211,3.773 -24.32,5.645 -1.124,0.259 -1.332,0.868 -0.796,1.8 0.932,1.619 2.263,2.861 3.799,3.891 0.716,0.48 1.484,0.256 2.229,0.069 8.99,-2.252 17.98,-4.505 26.967,-6.767 C -14.698,51.094 -3.944,48.353 6.831,45.695 8.399,45.308 8.547,44.713 7.909,43.356 2.675,32.217 0.3,20.449 0.293,8.172 0.292,5.575 0.291,2.978 0.279,0.381 0.278,0.295 0.158,0.21 0,0"
             style="fill:#28aae1;fill-opacity:1;fill-rule:nonzero;stroke:none"
             id="path40"
             inkscape:connector-curvature="0" /></g><g
           id="g42"
           transform="translate(422.8075,530.1236)"><path
             d="m 0,0 c -5.151,-5.08 -11.804,-7.441 -19.031,-7.441 -18.601,0 -26.471,12.807 -26.543,25.828 -0.071,13.093 8.443,26.4 26.543,26.4 6.797,0 13.236,-2.576 18.387,-7.656 L -6.94,31.05 c -3.291,3.22 -7.726,4.722 -12.091,4.722 -12.091,0 -17.313,-9.014 -17.242,-17.385 0.072,-8.299 4.866,-16.956 17.242,-16.956 4.365,0 9.301,1.789 12.592,5.08 z"
             style="fill:#28aae1;fill-opacity:1;fill-rule:nonzero;stroke:none"
             id="path44"
             inkscape:connector-curvature="0" /></g><g
           id="g46"
           transform="translate(433.3255,559.0991)"><path
             d="m 0,0 0.644,-4.078 c 2.718,4.364 6.367,5.008 9.945,5.008 3.648,0 7.154,-1.431 9.085,-3.362 l -3.934,-7.584 c -1.789,1.502 -3.435,2.289 -6.297,2.289 -4.578,0 -8.799,-2.432 -8.799,-8.943 V -35.271 H -8.084 V 0 Z"
             style="fill:#28aae1;fill-opacity:1;fill-rule:nonzero;stroke:none"
             id="path48"
             inkscape:connector-curvature="0" /></g><g
           id="g50"
           transform="translate(494.0658,559.0991)"><path
             d="m 0,0 -21.535,-50.009 h -9.587 l 6.582,15.31 L -38.634,0 h 10.159 l 5.366,-15.239 3.363,-9.944 3.649,9.729 L -9.659,0 Z"
             style="fill:#28aae1;fill-opacity:1;fill-rule:nonzero;stroke:none"
             id="path52"
             inkscape:connector-curvature="0" /></g><g
           id="g54"
           transform="translate(528.1927,541.4277)"><path
             d="m 0,0 c 0,5.509 -3.72,10.016 -10.016,10.016 -6.296,0 -10.016,-4.507 -10.016,-10.016 0,-5.509 4.078,-10.016 10.016,-10.016 C -4.078,-10.016 0,-5.509 0,0 m -29.547,-32.338 v 50.009 h 8.155 l 0.573,-4.865 c 2.718,3.935 7.44,5.652 11.447,5.652 10.874,0 18.101,-8.084 18.101,-18.458 0,-10.302 -6.511,-18.458 -17.815,-18.458 -3.72,0 -9.229,1.144 -11.733,5.007 v -18.887 z"
             style="fill:#28aae1;fill-opacity:1;fill-rule:nonzero;stroke:none"
             id="path56"
             inkscape:connector-curvature="0" /></g><g
           id="g58"
           transform="translate(555.6674,569.0438)"><path
             d="m 0,0 v -10.016 h 9.73 v -7.512 h -9.802 v -15.239 c 0,-3.363 1.861,-5.009 4.579,-5.009 1.36,0 2.933,0.43 4.221,1.074 l 2.433,-7.441 c -2.504,-1.002 -4.579,-1.431 -7.226,-1.503 -7.656,-0.285 -12.664,4.079 -12.664,12.879 v 15.239 h -6.582 v 7.512 h 6.582 v 9.086 z"
             style="fill:#28aae1;fill-opacity:1;fill-rule:nonzero;stroke:none"
             id="path60"
             inkscape:connector-curvature="0" /></g><g
           id="g62"
           transform="translate(578.9905,541.4277)"><path
             d="m 0,0 c 0,-5.366 3.22,-10.374 9.587,-10.374 6.367,0 9.587,5.008 9.587,10.374 0,5.294 -3.72,10.445 -9.587,10.445 C 3.291,10.445 0,5.294 0,0 m 27.974,0 c 0,-10.16 -6.94,-18.387 -18.387,-18.387 -11.447,0 -18.315,8.227 -18.315,18.387 0,10.088 7.011,18.387 18.243,18.387 11.233,0 18.459,-8.299 18.459,-18.387"
             style="fill:#28aae1;fill-opacity:1;fill-rule:nonzero;stroke:none"
             id="path64"
             inkscape:connector-curvature="0" /></g><g
           id="g66"
           transform="translate(626.568,565.3234)"><path
             d="M 0,0 H -15.883 V 8.585 H 25.326 V 0 H 9.443 V -41.495 H 0 Z"
             style="fill:#6d6f71;fill-opacity:1;fill-rule:nonzero;stroke:none"
             id="path68"
             inkscape:connector-curvature="0" /></g><g
           id="g70"
           transform="translate(654.8282,541.499)"><path
             d="m 0,0 c 0,-6.725 4.65,-10.731 10.445,-10.731 13.737,0 13.737,21.391 0,21.391 C 4.65,10.66 0,6.725 0,0 m 21.177,17.6 h 8.37 V -17.671 H 21.32 l -0.429,5.151 C 18.888,-16.67 13.379,-18.673 9.443,-18.744 -1.002,-18.816 -8.729,-12.377 -8.729,0 c 0,12.163 8.085,18.53 18.387,18.459 4.722,0 9.23,-2.218 11.233,-5.724 z"
             style="fill:#6d6f71;fill-opacity:1;fill-rule:nonzero;stroke:none"
             id="path72"
             inkscape:connector-curvature="0" /></g><g
           id="g74"
           transform="translate(714.2102,559.0991)"><path
             d="m 0,0 h 10.445 v -0.286 l -11.59,-17.099 12.306,-17.672 v -0.214 H 0.715 l -7.655,11.804 -7.655,-11.804 H -25.04 v 0.214 l 12.306,17.672 -11.591,17.099 V 0 h 10.446 l 6.939,-11.948 z"
             style="fill:#6d6f71;fill-opacity:1;fill-rule:nonzero;stroke:none"
             id="path76"
             inkscape:connector-curvature="0" /></g></g></g></g></svg>