<?xml version="1.0" encoding="UTF-8"?>
<svg width="137px" height="59px" viewBox="0 0 137 59" version="1.1" xmlns="http://www.w3.org/2000/svg" xmlns:xlink="http://www.w3.org/1999/xlink">
    <!-- Generator: Sketch 49.3 (51167) - http://www.bohemiancoding.com/sketch -->
    <title>Group Copy</title>
    <desc>Created with Sketch.</desc>
    <defs></defs>
    <g id="Website-Copy" stroke="none" stroke-width="1" fill="none" fill-rule="evenodd">
        <g id="iPhone-X-Copy" transform="translate(-118.000000, -144.000000)" fill="#000000">
            <g id="Group-Copy" transform="translate(118.000000, 142.000000)">
                <path d="M10.3895121,35.0927638 L5.65618138,35.0927638 C5.59664263,35.0927638 5.56687326,35.0630368 5.50733451,35.0035827 C5.47756513,34.9738557 5.44779575,34.9441286 5.44779575,34.8846746 L5.44779575,19.6941601 C5.44779575,19.604979 5.388257,19.5455249 5.29894888,19.5157979 L0.20838563,19.5157979 C0.148846879,19.5157979 0.119077503,19.4860709 0.0893081271,19.4563438 L0.0595387514,19.4266168 C0.0595387514,19.4266168 0.0595387514,19.3968898 0.0297693757,19.3968898 C0,19.3374357 0,19.2779816 0,19.2185276 L0,15.1756509 C0,15.0270158 0.0893081271,14.9081076 0.20838563,14.8783806 L15.8373079,14.8783806 C15.926616,14.8783806 15.9861548,14.9081076 16.0456935,14.9675617 C16.0456935,14.9675617 16.0754629,14.9972887 16.0754629,15.0270158 C16.1052323,15.0567428 16.1350016,15.1161969 16.1350016,15.1756509 L16.1350016,19.2185276 C16.1350016,19.3077087 16.1052323,19.3968898 16.0456935,19.4563438 C16.0159241,19.4860709 15.9563854,19.5157979 15.8968466,19.5157979 L10.8658221,19.5157979 C10.8062834,19.5157979 10.776514,19.5157979 10.7467446,19.5455249 C10.7169753,19.5455249 10.7169753,19.575252 10.6872059,19.604979 L10.6872059,34.8846746 C10.6574365,34.9738557 10.6276671,35.0035827 10.538359,35.0630368 C10.5085896,35.0927638 10.4490509,35.0927638 10.3895121,35.0927638 Z M34.1454739,35.0927638 L28.9953719,35.0927638 C28.7274476,35.0927638 28.6381394,35.0035827 28.5488313,34.7954935 L25.4825856,27.8988215 L23.5475762,27.8988215 C23.4284987,27.8988215 23.3689599,27.9582756 23.3689599,28.0771837 L23.3689599,34.7954935 C23.3689599,34.9738557 23.2498824,35.0927638 23.0712662,35.0927638 L18.4272436,35.0927638 C18.2486273,35.0927638 18.1295498,34.9738557 18.1295498,34.7954935 L18.1295498,15.1756509 C18.1295498,14.9972887 18.2486273,14.8783806 18.4272436,14.8783806 L26.6733606,14.8783806 C31.3173832,14.8783806 33.9668577,17.5835407 33.9668577,21.3886011 C33.9668577,23.915399 32.7760827,25.9665643 30.6326876,27.0367375 L34.3538596,34.7360394 C34.4431677,34.9144016 34.3538596,35.0927638 34.1454739,35.0927638 Z M26.3458975,23.5884016 C27.8343663,23.5884016 28.7274476,22.7560446 28.7274476,21.4480551 C28.7274476,20.1400656 27.8343663,19.3077087 26.3458975,19.3077087 L23.5475762,19.3077087 C23.4284987,19.3077087 23.3689599,19.3671627 23.3689599,19.4860709 L23.3689599,23.4100394 C23.3689599,23.5289475 23.4284987,23.5884016 23.5475762,23.5884016 L26.3458975,23.5884016 Z M35.5148652,34.7954935 L42.5106685,15.1756509 C42.5702073,14.9972887 42.6892848,14.8783806 42.8976704,14.8783806 L47.7500786,14.8783806 C47.9584643,14.8783806 48.0775418,14.9972887 48.1370805,15.1756509 L54.9840369,34.7954935 C55.0435757,34.9738557 54.9542676,35.0927638 54.7756513,35.0927638 L49.8637043,35.0927638 C49.6553187,35.0927638 49.5362412,34.9738557 49.4767024,34.7954935 L48.5240824,31.6741549 L41.9450504,31.6741549 L40.9924304,34.7954935 C40.9328916,34.9738557 40.8138141,35.0927638 40.6054285,35.0927638 L35.7232509,35.0927638 C35.5446346,35.0927638 35.4553265,34.9738557 35.5148652,34.7954935 Z M43.2846723,27.3340079 L47.2142299,27.3340079 L45.3387592,21.0318767 L45.2494511,21.0318767 L43.2846723,27.3340079 Z M56.9190464,34.7954935 L56.9190464,15.1756509 C56.9190464,14.9972887 57.0381239,14.8783806 57.2167401,14.8783806 L65.0460859,14.8783806 C68.618411,14.8783806 71.2381161,16.3647323 72.2502748,19.4860709 C72.6670461,20.7940604 72.8456624,21.9236877 72.8456624,24.9855722 C72.8456624,28.0177297 72.6670461,29.177084 72.2502748,30.4850735 C71.2381161,33.6064121 68.618411,35.0927638 65.0460859,35.0927638 L57.2167401,35.0927638 C57.0381239,35.0927638 56.9190464,34.9738557 56.9190464,34.7954935 Z M62.1584565,30.2769843 C62.1584565,30.3958924 62.2179952,30.4553465 62.3370727,30.4553465 L63.9148496,30.4553465 C65.7605509,30.4553465 66.7727097,29.9499869 67.2490197,28.5230893 C67.427636,27.9285486 67.5467135,27.2448268 67.5467135,24.9855722 C67.5467135,22.7263176 67.427636,22.0425958 67.2490197,21.4480551 C66.7727097,20.0211575 65.7605509,19.5157979 63.9148496,19.5157979 L62.3370727,19.5157979 C62.2179952,19.5157979 62.1584565,19.575252 62.1584565,19.6941601 L62.1584565,30.2769843 Z M75.7035224,34.7954935 L75.7035224,15.1756509 C75.7035224,14.9972887 75.8225999,14.8783806 76.0012162,14.8783806 L89.2485884,14.8783806 C89.4272046,14.8783806 89.5462821,14.9972887 89.5462821,15.1756509 L89.5462821,19.0104383 C89.5462821,19.1888005 89.4272046,19.3077087 89.2485884,19.3077087 L81.1215488,19.3077087 C81.0024713,19.3077087 80.9429326,19.3671627 80.9429326,19.4860709 L80.9429326,22.5479554 C80.9429326,22.6668635 81.0024713,22.7263176 81.1215488,22.7263176 L87.789889,22.7263176 C87.9685052,22.7263176 88.0875827,22.8452257 88.0875827,23.0235879 L88.0875827,26.7691942 C88.0875827,26.9475564 87.9685052,27.0664646 87.789889,27.0664646 L81.1215488,27.0664646 C81.0024713,27.0664646 80.9429326,27.1259186 80.9429326,27.2448268 L80.9429326,30.4850735 C80.9429326,30.6039816 81.0024713,30.6634357 81.1215488,30.6634357 L89.2485884,30.6634357 C89.4272046,30.6634357 89.5462821,30.7823438 89.5462821,30.9607061 L89.5462821,34.7954935 C89.5462821,34.9738557 89.4272046,35.0927638 89.2485884,35.0927638 L76.0012162,35.0927638 C75.8225999,35.0927638 75.7035224,34.9738557 75.7035224,34.7954935 Z M17.2960073,59.8652922 L12.1459053,59.8652922 C11.8779809,59.8652922 11.7886728,59.7761111 11.6993647,59.5680219 L8.63311896,52.67135 L6.69810953,52.67135 C6.57903203,52.67135 6.51949328,52.730804 6.51949328,52.8497122 L6.51949328,59.5680219 C6.51949328,59.7463841 6.40041578,59.8652922 6.22179952,59.8652922 L1.57777691,59.8652922 C1.39916066,59.8652922 1.28008316,59.7463841 1.28008316,59.5680219 L1.28008316,39.9481794 C1.28008316,39.7698172 1.39916066,39.650909 1.57777691,39.650909 L9.82389398,39.650909 C14.4679166,39.650909 17.117391,42.3560691 17.117391,46.1611295 C17.117391,48.6879274 15.926616,50.7390928 13.783221,51.809266 L17.5043929,59.5085678 C17.593701,59.68693 17.5043929,59.8652922 17.2960073,59.8652922 Z M9.49643085,48.36093 C10.9848996,48.36093 11.8779809,47.5285731 11.8779809,46.2205836 C11.8779809,44.9125941 10.9848996,44.0802371 9.49643085,44.0802371 L6.69810953,44.0802371 C6.57903203,44.0802371 6.51949328,44.1396912 6.51949328,44.2585993 L6.51949328,48.1825678 C6.51949328,48.301476 6.57903203,48.36093 6.69810953,48.36093 L9.49643085,48.36093 Z M20.0050205,59.5680219 L20.0050205,39.9481794 C20.0050205,39.7698172 20.124098,39.650909 20.3027142,39.650909 L33.5500864,39.650909 C33.7287027,39.650909 33.8477802,39.7698172 33.8477802,39.9481794 L33.8477802,43.7829668 C33.8477802,43.961329 33.7287027,44.0802371 33.5500864,44.0802371 L25.4230469,44.0802371 C25.3039694,44.0802371 25.2444306,44.1396912 25.2444306,44.2585993 L25.2444306,47.3204838 C25.2444306,47.439392 25.3039694,47.498846 25.4230469,47.498846 L32.091387,47.498846 C32.2700033,47.498846 32.3890808,47.6177542 32.3890808,47.7961164 L32.3890808,51.5417227 C32.3890808,51.7200849 32.2700033,51.838993 32.091387,51.838993 L25.4230469,51.838993 C25.3039694,51.838993 25.2444306,51.8984471 25.2444306,52.0173552 L25.2444306,55.257602 C25.2444306,55.3765101 25.3039694,55.4359642 25.4230469,55.4359642 L33.5500864,55.4359642 C33.7287027,55.4359642 33.8477802,55.5548723 33.8477802,55.7332345 L33.8477802,59.5680219 C33.8477802,59.7463841 33.7287027,59.8652922 33.5500864,59.8652922 L20.3027142,59.8652922 C20.124098,59.8652922 20.0050205,59.7463841 20.0050205,59.5680219 Z M41.5282791,59.8652922 L36.8842565,59.8652922 C36.7056402,59.8652922 36.5865627,59.7463841 36.5865627,59.5680219 L36.5865627,39.9481794 C36.5865627,39.7698172 36.7056402,39.650909 36.8842565,39.650909 L44.9815267,39.650909 C49.9232431,39.650909 52.4834094,42.4452502 52.4834094,46.3692187 C52.4834094,50.2337332 49.8934737,53.1172555 44.9815267,53.1172555 L42.0045891,53.1172555 C41.8855116,53.1172555 41.8259729,53.1767096 41.8259729,53.2956177 L41.8259729,59.5680219 C41.8259729,59.7463841 41.7068954,59.8652922 41.5282791,59.8652922 Z M44.6838329,48.6879274 C46.3211486,48.6879274 47.2439993,47.7663893 47.2439993,46.3692187 C47.2439993,44.9720481 46.3211486,44.0802371 44.6838329,44.0802371 L42.0045891,44.0802371 C41.8855116,44.0802371 41.8259729,44.1396912 41.8259729,44.2585993 L41.8259729,48.5095652 C41.8259729,48.6284733 41.8855116,48.6879274 42.0045891,48.6879274 L44.6838329,48.6879274 Z M62.8133827,60.2220167 C57.9014358,60.2220167 54.7458819,57.4276754 54.7458819,52.0470823 L54.7458819,39.9481794 C54.7458819,39.7698172 54.8649594,39.650909 55.0435757,39.650909 L59.6875983,39.650909 C59.8662146,39.650909 59.9852921,39.7698172 59.9852921,39.9481794 L59.9852921,52.3740796 C59.9852921,54.395518 61.1165283,55.5548723 62.8133827,55.5548723 C64.5697759,55.5548723 65.6117041,54.395518 65.6117041,52.3740796 L65.6117041,39.9481794 C65.6117041,39.7698172 65.7307816,39.650909 65.9093978,39.650909 L70.5534204,39.650909 C70.7320367,39.650909 70.8511142,39.7698172 70.8511142,39.9481794 L70.8511142,52.0470823 C70.8511142,57.4276754 67.6360216,60.2220167 62.8133827,60.2220167 Z M74.0662068,59.5680219 L74.0662068,39.9481794 C74.0662068,39.7698172 74.1852843,39.650909 74.3639005,39.650909 L82.6100176,39.650909 C87.1349627,39.650909 89.218819,41.8209825 89.218819,45.0315022 C89.218819,47.1123946 88.266199,48.5690193 86.7479608,49.3716492 L86.7479608,49.4311033 C88.2364296,49.9959169 89.5760515,51.6903579 89.5760515,54.0387936 C89.5760515,57.9924891 86.7777302,59.8652922 82.5207095,59.8652922 L74.3639005,59.8652922 C74.1852843,59.8652922 74.0662068,59.7463841 74.0662068,59.5680219 Z M79.4842331,47.7663893 L81.5978588,47.7663893 C83.1756357,47.7663893 84.0091783,47.0826676 84.0091783,45.685497 C84.0091783,44.2585993 83.2054051,43.6046046 81.5978588,43.6046046 L79.4842331,43.6046046 C79.3651556,43.6046046 79.3056169,43.6640586 79.3056169,43.7829668 L79.3056169,47.5880271 C79.3056169,47.7069353 79.3651556,47.7663893 79.4842331,47.7663893 Z M79.3056169,55.7332345 C79.3056169,55.8521426 79.3651556,55.9115967 79.4842331,55.9115967 L81.8657832,55.9115967 C83.5030989,55.9115967 84.3366414,55.1089668 84.3366414,53.6226151 C84.3366414,52.2254445 83.5030989,51.3633605 81.8657832,51.3633605 L79.4842331,51.3633605 C79.3651556,51.3633605 79.3056169,51.4228145 79.3056169,51.5417227 L79.3056169,55.7332345 Z M92.3446035,59.5680219 L92.3446035,39.9481794 C92.3446035,39.7698172 92.463681,39.650909 92.6422972,39.650909 L97.2863198,39.650909 C97.4649361,39.650909 97.5840136,39.7698172 97.5840136,39.9481794 L97.5840136,55.0495127 C97.5840136,55.1684208 97.6435523,55.2278749 97.7626298,55.2278749 L106.33621,55.2278749 C106.514826,55.2278749 106.633904,55.3467831 106.633904,55.5251453 L106.633904,59.5680219 C106.633904,59.7463841 106.514826,59.8652922 106.33621,59.8652922 L92.6422972,59.8652922 C92.463681,59.8652922 92.3446035,59.7463841 92.3446035,59.5680219 Z M108.836838,59.5680219 L108.836838,39.9481794 C108.836838,39.7698172 108.955915,39.650909 109.134531,39.650909 L113.778554,39.650909 C113.95717,39.650909 114.076248,39.7698172 114.076248,39.9481794 L114.076248,59.5680219 C114.076248,59.7463841 113.95717,59.8652922 113.778554,59.8652922 L109.134531,59.8652922 C108.955915,59.8652922 108.836838,59.7463841 108.836838,59.5680219 Z M117.469957,55.2278749 C117.023416,53.8604313 116.874569,52.7605311 116.874569,49.7581006 C116.874569,46.7556702 117.023416,45.6557699 117.469957,44.2883264 C118.541654,40.9886256 121.161359,39.2941846 124.822992,39.2941846 C128.395317,39.2941846 130.955484,40.9886256 132.08672,43.9018749 C132.176028,44.1099642 132.146259,44.2288723 131.937873,44.3180534 L127.978546,46.0422214 C127.770161,46.1314025 127.651083,46.0719484 127.561775,45.8638592 C126.996157,44.6747778 126.281692,43.961329 124.9123,43.961329 C123.632217,43.961329 122.828444,44.5855967 122.471212,45.715224 C122.262826,46.3394917 122.173518,46.9637594 122.173518,49.7581006 C122.173518,52.5524418 122.262826,53.1767096 122.471212,53.8009773 C122.828444,54.9306046 123.632217,55.5548723 124.9123,55.5548723 C126.281692,55.5548723 126.996157,54.8414235 127.561775,53.6523421 C127.651083,53.4442529 127.770161,53.3847988 127.978546,53.4739799 L131.937873,55.1981479 C132.146259,55.287329 132.176028,55.4062371 132.08672,55.6143264 C130.955484,58.5275757 128.395317,60.2220167 124.822992,60.2220167 C121.161359,60.2220167 118.541654,58.5275757 117.469957,55.2278749 Z" id="TRADE-REPUBLIC"></path>
                <g id="Group-2" transform="translate(97.772215, 0.000000)">
                    <path d="M3.30035573,4.66222478 L17.5411376,3.26651967 C17.7156718,3.24941399 17.8916355,3.27850804 18.051375,3.35088292 L24.1772018,6.12637845 C24.3369791,6.19877049 24.5129877,6.22786088 24.6875612,6.21072973 L38.4182882,4.86331419 C38.9679329,4.80937679 39.4572328,5.21122689 39.5111702,5.7608715 C39.5190502,5.84117208 39.5171826,5.92213122 39.5056082,6.00198303 L38.2102133,14.9389258 C38.1468009,15.3764084 37.8036708,15.720349 37.366339,15.7847932 L23.1198725,17.8841193 C22.8659077,17.921543 22.6072773,17.8598664 22.3975327,17.7118602 L16.6279558,13.6405595 C16.4181763,13.4925287 16.1594962,13.4308571 15.9054938,13.4683184 L2.26339273,15.480309 C1.71701825,15.5608905 1.20877004,15.1832906 1.12818858,14.6369162 C1.11404132,14.540992 1.11392033,14.4435203 1.12782942,14.3475613 L2.40823832,5.51400713 C2.47424106,5.05865359 2.84243757,4.70710424 3.30035573,4.66222478 Z" id="Rectangle" transform="translate(20.319034, 10.571851) rotate(-9.000000) translate(-20.319034, -10.571851) "></path>
                    <path d="M3.28415037,18.953506 L17.5528755,16.8541926 C17.8078329,16.8166815 18.0674291,16.8790453 18.2775244,17.0282777 L24.0036608,21.0955998 C24.213807,21.2448684 24.4734759,21.3072248 24.7284883,21.2696586 L38.3870995,19.2575904 C38.9334875,19.1771012 39.441672,19.5547869 39.5221611,20.101175 C39.5362839,20.1970456 39.5363966,20.2944598 39.5224956,20.3903628 L38.242035,29.2242737 C38.1760405,29.6795706 37.8079246,30.0310969 37.3500703,30.076041 L23.1320834,31.4717144 C22.9583038,31.488773 22.7830864,31.4600305 22.623864,31.3883465 L16.454241,28.6107001 C16.2949927,28.5390044 16.1197446,28.5102644 15.9459381,28.5273404 L2.23213871,29.8746836 C1.68250029,29.928684 1.19315428,29.5268901 1.13915381,28.9772517 C1.13126084,28.8969138 1.13312464,28.8159157 1.14470453,28.736026 L2.44005261,19.7994063 C2.50347697,19.361841 2.84672138,19.0178636 3.28415037,18.953506 Z" id="Rectangle-Copy" transform="translate(20.333600, 24.160018) rotate(-9.000000) translate(-20.333600, -24.160018) "></path>
                </g>
            </g>
        </g>
    </g>
</svg>