<svg xmlns="http://www.w3.org/2000/svg" width="140" height="44" viewBox="0 0 140 44" fill="none"><path d="M121.006 12.7202C122.955 12.7202 124.435 11.3527 124.435 9.36008C124.435 7.3284 122.955 6 121.006 6C119.058 6 117.577 7.3284 117.577 9.36008C117.577 11.3527 119.058 12.7202 121.006 12.7202Z" fill="black"></path><path d="M118.318 35.6156H123.773V16.51H118.318V35.6156Z" fill="black"></path><path d="M28.526 35.6156H23.0709V11.42L28.526 8.2661V35.6156Z" fill="black"></path><path fill-rule="evenodd" clip-rule="evenodd" d="M41.8059 36.2017C47.9623 36.2017 52.2094 31.7476 52.2094 26.0042C52.2094 20.2999 47.9623 15.8849 41.8059 15.8849C35.6494 15.8849 31.4413 20.2999 31.4413 26.0042C31.4413 31.7476 35.6494 36.2017 41.8059 36.2017ZM41.8059 31.0443C39.1952 31.0443 37.0911 29.1689 37.0911 26.0042C37.0911 22.9176 39.1952 21.0032 41.8059 21.0032C44.4554 21.0032 46.5595 22.9176 46.5595 26.0042C46.5595 29.1689 44.4554 31.0443 41.8059 31.0443Z" fill="black"></path><path d="M70.3538 22.8395C68.4445 21.5892 66.808 21.0422 64.7818 21.0422C62.0933 21.0422 59.7554 22.7613 59.7554 26.0042C59.7554 29.3643 62.0933 31.0053 64.7818 31.0053C66.808 31.0053 68.4445 30.4973 70.3538 29.208V34.8733C68.951 35.5375 67.0418 36.2017 64.5091 36.2017C58.5085 36.2017 54.1055 32.0602 54.1055 26.0042C54.1055 19.9873 58.5085 15.8849 64.5091 15.8849C67.0418 15.8849 68.951 16.5491 70.3538 17.2133V22.8395Z" fill="black"></path><path d="M93.5815 35.6156L85.9834 23.7772L93.1529 16.51H86.1392L79.2815 23.4255V8.2661L73.8264 11.42V35.6156H79.2815V30.5364L82.0479 27.7624L87.0744 35.6156H93.5815Z" fill="black"></path><path fill-rule="evenodd" clip-rule="evenodd" d="M101.073 40.85L95.6182 44V16.471H101.073V17.8775C102.32 16.7835 104.151 15.8849 106.411 15.8849C111.905 15.8849 115.373 20.4562 115.373 26.0433C115.373 31.5523 111.905 36.2017 106.411 36.2017C104.151 36.2017 102.437 35.4203 101.073 34.17V40.85ZM101.073 29.0127C102.086 30.2239 103.528 31.0443 105.126 31.0443C107.775 31.0443 109.723 29.1299 109.723 26.0433C109.684 22.9567 107.775 21.0032 105.126 21.0032C103.528 21.0032 102.086 21.8627 101.073 23.0739V29.0127Z" fill="black"></path><path d="M140 35.7719C139.493 35.9282 138.091 36.2017 136.727 36.2017C133.259 36.2017 130.298 34.4435 130.298 29.9894V21.0422H127.064V16.51H130.493V11.42L135.753 8.2661V16.51H140V21.0422H135.753V28.7001C135.753 30.4192 136.61 31.2788 138.441 31.2788C139.026 31.2788 139.571 31.1615 140 31.0443V35.7719Z" fill="black"></path><path fill-rule="evenodd" clip-rule="evenodd" d="M0 35.6156H11.3387C16.8717 35.6156 20.0278 32.5681 20.0278 27.6843C20.0278 24.793 18.5082 22.3706 15.7807 21.3939C17.612 20.4952 19.0537 18.5026 19.0537 15.6114C19.0537 11.509 15.9365 8.2661 10.7932 8.2661H5.65087V13.2672H9.62426C11.6894 13.2672 13.0531 14.3611 13.0531 16.2365C13.0531 18.1901 11.6894 19.3622 9.62426 19.3622H5.65087V13.2672H0V35.6156ZM5.64987 23.8944V30.4973H10.2087C12.3907 30.4973 13.9493 29.2862 13.9493 27.1763C13.9493 25.1447 12.5466 23.8944 10.2087 23.8944H5.64987Z" fill="black"></path></svg>